<svg xmlns="http://www.w3.org/2000/svg" width="59.18" height="16.002" viewBox="0 0 59.18 16.002">
  <path id="Union_2" data-name="Union 2" d="M21878.172,19546.373a5.379,5.379,0,0,1-1.744-4.6V19532h2.537v9.484a4.584,4.584,0,0,0,.648,2.959,4.119,4.119,0,0,0,3.064,1.309,3.463,3.463,0,0,0,3.719-4.207V19532h2.535v9.77a5.338,5.338,0,0,1-1.557,4.418,6.7,6.7,0,0,1-4.691,1.814A6.937,6.937,0,0,1,21878.172,19546.373Zm38.217,1.365-2-4.27h-6.656l-2,4.27h-2.789l7.619-15.738h.984l7.629,15.738Zm-7.582-6.52h4.512l-2.256-4.906Zm-15.518,6.52V19532h3.725a7.88,7.88,0,0,1,4.3.852,4.435,4.435,0,0,1,.3,7.234,6.8,6.8,0,0,1-4.137,1.068h-1.65v6.584Zm2.541-8.834h1.535c3.074,0,3.434-1.348,3.434-2.365,0-1.926-1.4-2.289-3.984-2.289h-.984Zm-35.828,8.834,9.018-13.488h-7.686V19532h12.059l-9.045,13.488h8.5v2.25Z" transform="translate(-21860.002 -19532)" fill="#current"/>
</svg>
