<svg xmlns="http://www.w3.org/2000/svg" width="59.182" height="16" viewBox="0 0 59.182 16"><path class="test" d="M296.606,0h-.984L288,15.741h2.789l2-4.271h6.657l2,4.271h2.793Zm-2.748,9.219,2.256-4.908,2.256,4.908Z"
transform="translate(-245.051 0)" /><path class="test" d="M120.145,9.544a4.182,4.182,0,0,1-.722,2.983,4.2,4.2,0,0,1-2.993,1.224,4.117,4.117,0,0,1-3.066-1.306,4.567,4.567,0,0,1-.649-2.962V0H110.18V9.768a5.381,5.381,0,0,0,1.74,4.607A6.931,6.931,0,0,0,116.431,16a6.721,6.721,0,0,0,4.693-1.81,5.347,5.347,0,0,0,1.555-4.422V0h-2.535Z"
transform="translate(-93.75 0)" /><path class="test" d="M1.333,0V2.249H9.022L0,15.741H12.849V13.49h-8.5L13.395,0Z"
transform="translate(0 0)" /><path class="test" d="M231.232.852A7.864,7.864,0,0,0,226.938,0H223.21V15.741h2.535V9.155h1.648a6.806,6.806,0,0,0,4.138-1.068,4.4,4.4,0,0,0,1.727-3.509A4.377,4.377,0,0,0,231.232.852m-3.937,6.055h-1.542V2.25h.987c2.581,0,3.98.364,3.98,2.289,0,1.016-.356,2.367-3.43,2.367"
transform="translate(-189.924 0)" /></svg>