<svg xmlns="http://www.w3.org/2000/svg" width="453.12" height="557.72" viewBox="0 0 453.12 557.72"><defs><style>.a{fill:#0a0600;}</style></defs><path class="a" d="M54.4,124c3.2-12.64,7.68-31.36,10.56-45.28h3.36c2.72,13.76,7.36,32.64,10.56,45.28l10.4,40h17.6L132.8,68H120.64l-11.68,47.2c-3.04,13.12-6.08,25.76-8.48,38.56H96.16c-2.72-13.12-5.44-25.76-8.64-38.4L74.72,68H59.68l-12.8,47.36c-3.36,13.28-5.92,24.96-8.8,38.4H33.6c-2.56-12.96-5.44-25.44-8.64-38.56L13.44,68H.8l25.92,96H44ZM172.16,96.96c15.52,0,22.56,8.96,23.2,24.48H147.2C148.8,105.12,157.76,96.96,172.16,96.96Zm.64,68.8c18.72,0,28.64-8.96,32.32-23.68l-9.76-2.88c-2.72,9.44-7.84,17.12-22.56,17.12-16,0-24.8-9.76-25.76-26.4h58.24a74.062,74.062,0,0,0,.32-7.84c0-20.48-11.2-34.24-33.12-34.24S136,102.4,136,127.04C136,151.36,149.76,165.76,172.8,165.76ZM21.6,266.12c0-13.92,9.92-23.2,24.8-23.2,12.96,0,17.92,8.64,17.92,19.84V309H75.36V266.12c0-13.92,9.6-23.2,24.8-23.2,12.96,0,17.92,8.64,17.92,19.84V309h11.04V260.36c0-16.32-8-27.52-25.28-27.52-15.68,0-24.64,8.8-28,22.24h-1.6c-1.44-13.44-8.96-22.24-23.84-22.24-13.76,0-23.52,8-27.68,20.96H21.44V234.6H10.56V309H21.6Zm149.76,35.36c-11.84,0-15.84-5.92-15.84-12.32,0-8.32,5.92-12.64,16.64-12.64h24.32v5.12C196.48,293,186.56,301.48,171.36,301.48Zm25.6,7.52h10.4V261.32c0-18.4-8.8-28.32-28.96-28.32-16.8,0-27.36,8.48-30.72,23.04l10.56,2.72c2.56-10.88,8.8-16.48,20-16.48,13.44,0,18.24,6.88,18.24,19.2v6.88h-25.6c-17.6,0-26.08,9.44-26.08,21.76,0,14.24,8.96,20.48,23.52,20.48,13.44,0,23.52-6.72,27.36-19.36h1.28Zm42.72-102.72H228.8V309h10.88V276.04h8.16L280.48,309h12.8v-1.76l-36.8-35.84,33.6-35.04V234.6H277.44l-29.92,32.64h-7.84Zm95.2,35.68c15.52,0,22.56,8.96,23.2,24.48H309.92C311.52,250.12,320.48,241.96,334.88,241.96Zm.64,68.8c18.72,0,28.64-8.96,32.32-23.68l-9.76-2.88c-2.72,9.44-7.84,17.12-22.56,17.12-16,0-24.8-9.76-25.76-26.4H368a74.058,74.058,0,0,0,.32-7.84c0-20.48-11.2-34.24-33.12-34.24s-36.48,14.56-36.48,39.2C298.72,296.36,312.48,310.76,335.52,310.76ZM46.08,446C31.2,446,21.6,435.28,21.6,419.76v-5.6c0-16.16,9.6-26.24,24.48-26.24,15.52,0,22.88,9.28,22.88,28.96C68.96,436.4,61.44,446,46.08,446ZM21.6,351.28H10.56V454H21.6V433.68h.8c3.52,12.8,13.12,22.08,28.32,22.08C68.96,455.76,80,442,80,416.88s-10.56-39.04-30.08-39.04c-15.2,0-23.68,9.12-27.36,21.76H21.6ZM107.2,454V415.76c0-17.92,7.36-24.96,23.84-24.96h3.52v-12h-3.04c-12,0-20,6.4-23.68,20.8h-.96v-20H96.16V454Zm62.72-7.52c-11.84,0-15.84-5.92-15.84-12.32,0-8.32,5.92-12.64,16.64-12.64h24.32v5.12C195.04,438,185.12,446.48,169.92,446.48Zm25.6,7.52h10.4V406.32c0-18.4-8.8-28.32-28.96-28.32-16.8,0-27.36,8.48-30.72,23.04l10.56,2.72c2.56-10.88,8.8-16.48,20-16.48,13.44,0,18.24,6.88,18.24,19.2v6.88h-25.6c-17.6,0-26.08,9.44-26.08,21.76,0,14.24,8.96,20.48,23.52,20.48,13.44,0,23.52-6.72,27.36-19.36h1.28Zm41.92-42.88c0-13.92,9.92-23.2,24.8-23.2,13.44,0,17.92,8.64,17.92,19.84V454H291.2V405.36c0-16.32-7.68-27.52-25.12-27.52-13.28,0-23.52,8.16-27.52,20.96h-1.28V379.6H226.4V454h11.04Zm103.04,34.72c-15.68,0-23.04-9.28-23.04-28.8,0-19.68,7.68-29.12,23.04-29.12,14.88,0,24.48,10.56,24.48,26.24v5.76C364.96,435.76,355.36,445.84,340.48,445.84ZM364.96,454h10.88V351.28H364.96v48.48H364c-3.52-12.64-12-21.92-27.68-21.92-18.72,0-29.76,13.92-29.76,39.2,0,24.96,10.72,38.72,29.6,38.72,14.72,0,24.16-9.12,27.84-21.76h.96Zm60.16,1.92c20.16,0,28.8-8.96,28.8-21.92,0-12-8-18.72-28.48-22.08-15.04-2.4-19.68-6.88-19.68-13.44,0-7.52,5.6-11.84,16.48-11.84,10.4,0,16.32,4,19.04,15.36l10.24-2.4c-3.36-13.28-10.4-21.76-29.12-21.76-18.08,0-27.36,8.64-27.36,21.12,0,11.52,7.2,18.4,26.08,21.6,16.32,2.72,21.92,5.92,21.92,13.76,0,8.16-5.92,12.64-17.76,12.64-15.68,0-21.44-7.84-24-18.08l-10.24,2.08C394.4,446.16,402.88,455.92,425.12,455.92ZM37.28,533.88c13.76,0,21.12,6.24,21.12,16.48,0,10.56-6.4,16.32-20.96,16.32-14.4,0-20.16-5.92-20.16-16.32C17.28,540.28,23.36,533.88,37.28,533.88Zm1.6,83.04c-21.12,0-27.04-3.04-27.04-10.4,0-4.8,4.32-10.4,14.56-10.4H53.76c8.96,0,12.8,4,12.8,9.12C66.56,612.92,61.44,616.92,38.88,616.92Zm37.12-12c0-11.04-7.84-17.44-22.4-17.44-8.32,0-17.28.16-25.76.16-5.28,0-8.16-1.28-8.16-4.64,0-1.92.96-3.36,2.4-5.44l2.72-4a42.931,42.931,0,0,0,12.48,1.6c20.48,0,31.04-8.16,31.04-22.72,0-11.52-8.8-16.32-19.36-18.4l.16-1.28c6.88.64,11.68.96,15.68.96h9.12V524.6H38.56c-19.84,0-31.52,8.96-31.52,25.92,0,10.88,5.6,19.04,16.16,22.56l-5.6,3.84c-4,2.4-7.04,5.44-7.04,9.12,0,5.28,3.52,8.16,8.32,9.44v.64C8.32,598.2,2.4,603,2.4,609.56c0,9.92,8.32,16.16,36.16,16.16C66.88,625.72,76,619.16,76,604.92Zm25.92-108.64H91.04V599h10.88Zm53.92,104.48c23.36,0,36.8-15.04,36.8-39.2,0-24.32-14.72-38.72-36.8-38.72s-36.8,14.4-36.8,38.72C119.04,585.72,132.32,600.76,155.84,600.76Zm0-68.16c16.64,0,25.76,10.88,25.76,28.8S172.96,591,155.68,591s-25.6-11.68-25.6-29.6S139.2,532.6,155.84,532.6Zm107.52-8h-12.8l-8.64,28.8c-3.52,11.52-6.88,24.16-9.6,36.32h-3.04c-2.88-12.48-6.56-24-10.72-36.8l-8.64-28.32H198.56L223.04,599h14.08l9.76-32.96c3.2-10.56,6.08-21.44,8.48-32.32h2.24c2.56,10.88,5.28,21.6,8.48,32.32L276,599h14.4l24.32-74.4h-11.2l-8.32,28.32c-3.84,12.8-7.36,24.32-10.4,36.8h-2.88c-2.72-12.32-6.24-24.64-9.76-36.32Z" transform="translate(-0.8 -68)"/></svg>